# xmcd
#
# Track frame offsets: 
#        157
#        17775
#        30192
#        44467
#        57135
#        70807
#        88467
#        100435
#        112990
#        132575
#        150440
#
# Disc length: 2165 seconds
#
# Revision: 3
# Processed by: cddbd v1.4PL0 Copyright (c) Steve Scherf et al.
# Submitted via: ExactAudioCopy v0.95a3
#
DISCID=8d08730b
DTITLE=The Paladins - The Paladins
DYEAR=1988
DGENRE=Retro
TTITLE0=Hold On
TTITLE1=Make It
TTITLE2=Honky Tonk All Night
TTITLE3=Let's Go
TTITLE4=Lucky Man
TTITLE5=Lover's Rock
TTITLE6=Daddy Yar
TTITLE7=Come on Home
TTITLE8=Bad Case of Love
TTITLE9=Let 'er Roll
TTITLE10=Slow Down
EXTD=
EXTT0=
EXTT1=
EXTT2=
EXTT3=
EXTT4=
EXTT5=
EXTT6=
EXTT7=
EXTT8=
EXTT9=
EXTT10=
PLAYORDER=
